<mxfile host="65bd71144e">
    <diagram name="ER Diagram" id="0">
        <mxGraphModel dx="460" dy="343" grid="0" gridSize="10" guides="1" tooltips="1" connect="1" arrows="1" fold="1" page="1" pageScale="1" pageWidth="1169" pageHeight="1654" background="#FFFFFF" math="0" shadow="0">
            <root>
                <mxCell id="0"/>
                <mxCell id="1" parent="0"/>
                <mxCell id="13" value="" style="edgeStyle=none;html=1;fontColor=#000000;labelBackgroundColor=none;strokeColor=#000000;labelBorderColor=none;" edge="1" parent="1" source="Student" target="12">
                    <mxGeometry relative="1" as="geometry"/>
                </mxCell>
                <mxCell id="15" style="edgeStyle=none;html=1;exitX=0.25;exitY=0;exitDx=0;exitDy=0;entryX=1;entryY=1;entryDx=0;entryDy=0;fontColor=#000000;labelBackgroundColor=none;strokeColor=#000000;labelBorderColor=none;" edge="1" parent="1" source="Student" target="14">
                    <mxGeometry relative="1" as="geometry"/>
                </mxCell>
                <mxCell id="18" style="edgeStyle=none;html=1;exitX=0.25;exitY=1;exitDx=0;exitDy=0;entryX=1;entryY=0.5;entryDx=0;entryDy=0;fontColor=#000000;labelBackgroundColor=none;strokeColor=#000000;labelBorderColor=none;" edge="1" parent="1" source="Student" target="16">
                    <mxGeometry relative="1" as="geometry"/>
                </mxCell>
                <mxCell id="22" style="edgeStyle=none;html=1;exitX=0.5;exitY=1;exitDx=0;exitDy=0;entryX=0.5;entryY=0;entryDx=0;entryDy=0;fontColor=#000000;labelBackgroundColor=none;strokeColor=#000000;labelBorderColor=none;" edge="1" parent="1" source="Student" target="19">
                    <mxGeometry relative="1" as="geometry"/>
                </mxCell>
                <mxCell id="23" style="edgeStyle=none;html=1;exitX=1;exitY=1;exitDx=0;exitDy=0;entryX=0.273;entryY=0.143;entryDx=0;entryDy=0;entryPerimeter=0;fontColor=#000000;labelBackgroundColor=none;strokeColor=#000000;labelBorderColor=none;" edge="1" parent="1" source="Student" target="20">
                    <mxGeometry relative="1" as="geometry"/>
                </mxCell>
                <mxCell id="Student" value="Student" style="shape=rectangle;whiteSpace=wrap;html=1;fontColor=#000000;labelBackgroundColor=none;strokeColor=#000000;labelBorderColor=none;fillColor=none;" parent="1" vertex="1">
                    <mxGeometry x="200" y="570" width="120" height="80" as="geometry"/>
                </mxCell>
                <mxCell id="3" value="" style="edgeStyle=none;html=1;fontColor=#000000;labelBackgroundColor=none;strokeColor=#000000;labelBorderColor=none;" parent="1" source="Resume" target="2" edge="1">
                    <mxGeometry relative="1" as="geometry"/>
                </mxCell>
                <mxCell id="5" value="" style="edgeStyle=none;html=1;fontColor=#000000;labelBackgroundColor=none;strokeColor=#000000;labelBorderColor=none;" parent="1" source="Resume" target="4" edge="1">
                    <mxGeometry relative="1" as="geometry"/>
                </mxCell>
                <mxCell id="6" style="edgeStyle=none;html=1;exitX=0;exitY=0.25;exitDx=0;exitDy=0;fontColor=#000000;labelBackgroundColor=none;strokeColor=#000000;labelBorderColor=none;" parent="1" source="Resume" target="7" edge="1">
                    <mxGeometry relative="1" as="geometry">
                        <mxPoint x="310" y="240" as="targetPoint"/>
                    </mxGeometry>
                </mxCell>
                <mxCell id="8" style="edgeStyle=none;html=1;exitX=0.75;exitY=0;exitDx=0;exitDy=0;fontColor=#000000;labelBackgroundColor=none;strokeColor=#000000;labelBorderColor=none;" parent="1" source="Resume" target="9" edge="1">
                    <mxGeometry relative="1" as="geometry">
                        <mxPoint x="550" y="230" as="targetPoint"/>
                    </mxGeometry>
                </mxCell>
                <mxCell id="10" style="edgeStyle=none;html=1;exitX=1;exitY=0;exitDx=0;exitDy=0;fontColor=#000000;labelBackgroundColor=none;strokeColor=#000000;labelBorderColor=none;" parent="1" source="Resume" target="11" edge="1">
                    <mxGeometry relative="1" as="geometry">
                        <mxPoint x="650" y="260" as="targetPoint"/>
                    </mxGeometry>
                </mxCell>
                <mxCell id="Resume" value="Resume" style="shape=rectangle;whiteSpace=wrap;html=1;fontColor=#000000;labelBackgroundColor=none;strokeColor=#000000;labelBorderColor=none;fillColor=none;" parent="1" vertex="1">
                    <mxGeometry x="390" y="310" width="120" height="80" as="geometry"/>
                </mxCell>
                <mxCell id="36" style="edgeStyle=none;html=1;exitX=0;exitY=0;exitDx=0;exitDy=0;entryX=1;entryY=1;entryDx=0;entryDy=0;fontColor=#000000;labelBackgroundColor=none;strokeColor=#000000;labelBorderColor=none;" edge="1" parent="1" source="Job" target="32">
                    <mxGeometry relative="1" as="geometry"/>
                </mxCell>
                <mxCell id="37" style="edgeStyle=none;html=1;exitX=0.25;exitY=0;exitDx=0;exitDy=0;entryX=0.5;entryY=1;entryDx=0;entryDy=0;fontColor=#000000;labelBackgroundColor=none;strokeColor=#000000;labelBorderColor=none;" edge="1" parent="1" source="Job" target="35">
                    <mxGeometry relative="1" as="geometry"/>
                </mxCell>
                <mxCell id="38" style="edgeStyle=none;html=1;exitX=0.5;exitY=0;exitDx=0;exitDy=0;entryX=0;entryY=1;entryDx=0;entryDy=0;fontColor=#000000;labelBackgroundColor=none;strokeColor=#000000;labelBorderColor=none;" edge="1" parent="1" source="Job" target="34">
                    <mxGeometry relative="1" as="geometry">
                        <mxPoint x="670" y="120" as="targetPoint"/>
                    </mxGeometry>
                </mxCell>
                <mxCell id="39" style="edgeStyle=none;html=1;exitX=0.75;exitY=1;exitDx=0;exitDy=0;entryX=0;entryY=0;entryDx=0;entryDy=0;fontColor=#000000;labelBackgroundColor=none;strokeColor=#000000;labelBorderColor=none;" edge="1" parent="1" source="Job" target="33">
                    <mxGeometry relative="1" as="geometry"/>
                </mxCell>
                <mxCell id="Job" value="Job" style="shape=rectangle;whiteSpace=wrap;html=1;fontColor=#000000;labelBackgroundColor=none;strokeColor=#000000;labelBorderColor=none;fillColor=none;" parent="1" vertex="1">
                    <mxGeometry x="690" y="330" width="120" height="80" as="geometry"/>
                </mxCell>
                <mxCell id="41" value="" style="edgeStyle=none;html=1;labelBackgroundColor=none;labelBorderColor=none;strokeColor=#000000;fontColor=#000000;" edge="1" parent="1" source="Website" target="40">
                    <mxGeometry relative="1" as="geometry"/>
                </mxCell>
                <mxCell id="50" style="edgeStyle=none;html=1;exitX=0;exitY=1;exitDx=0;exitDy=0;entryX=1;entryY=0;entryDx=0;entryDy=0;labelBackgroundColor=none;labelBorderColor=none;strokeColor=#000000;fontColor=#000000;" edge="1" parent="1" source="Website" target="44">
                    <mxGeometry relative="1" as="geometry"/>
                </mxCell>
                <mxCell id="51" style="edgeStyle=none;html=1;exitX=0.5;exitY=1;exitDx=0;exitDy=0;entryX=0.5;entryY=0;entryDx=0;entryDy=0;labelBackgroundColor=none;labelBorderColor=none;strokeColor=#000000;fontColor=#000000;" edge="1" parent="1" source="Website" target="43">
                    <mxGeometry relative="1" as="geometry"/>
                </mxCell>
                <mxCell id="Website" value="Website" style="shape=rectangle;whiteSpace=wrap;html=1;strokeColor=#000000;fontColor=#000000;fillColor=none;" parent="1" vertex="1">
                    <mxGeometry x="165" y="1196" width="120" height="80" as="geometry"/>
                </mxCell>
                <mxCell id="52" style="edgeStyle=none;html=1;exitX=0;exitY=1;exitDx=0;exitDy=0;entryX=0.5;entryY=0;entryDx=0;entryDy=0;labelBackgroundColor=none;labelBorderColor=none;strokeColor=#000000;fontColor=#000000;" edge="1" parent="1" source="Vulnerability" target="49">
                    <mxGeometry relative="1" as="geometry"/>
                </mxCell>
                <mxCell id="53" style="edgeStyle=none;html=1;exitX=0.5;exitY=1;exitDx=0;exitDy=0;entryX=0.5;entryY=0;entryDx=0;entryDy=0;labelBackgroundColor=none;labelBorderColor=none;strokeColor=#000000;fontColor=#000000;" edge="1" parent="1" source="Vulnerability" target="48">
                    <mxGeometry relative="1" as="geometry"/>
                </mxCell>
                <mxCell id="54" style="edgeStyle=none;html=1;exitX=1;exitY=1;exitDx=0;exitDy=0;entryX=0;entryY=0;entryDx=0;entryDy=0;labelBackgroundColor=none;labelBorderColor=none;strokeColor=#000000;fontColor=#000000;" edge="1" parent="1" source="Vulnerability" target="47">
                    <mxGeometry relative="1" as="geometry"/>
                </mxCell>
                <mxCell id="55" style="edgeStyle=none;html=1;exitX=1;exitY=0.5;exitDx=0;exitDy=0;entryX=0;entryY=0.5;entryDx=0;entryDy=0;labelBackgroundColor=none;labelBorderColor=none;strokeColor=#000000;fontColor=#000000;" edge="1" parent="1" source="Vulnerability" target="46">
                    <mxGeometry relative="1" as="geometry"/>
                </mxCell>
                <mxCell id="56" style="edgeStyle=none;html=1;exitX=0.75;exitY=0;exitDx=0;exitDy=0;labelBackgroundColor=none;labelBorderColor=none;strokeColor=#000000;fontColor=#000000;entryX=0.5;entryY=1;entryDx=0;entryDy=0;" edge="1" parent="1" source="Vulnerability" target="45">
                    <mxGeometry relative="1" as="geometry">
                        <mxPoint x="580.4807815551758" y="1189.628261566162" as="targetPoint"/>
                    </mxGeometry>
                </mxCell>
                <mxCell id="Vulnerability" value="Vulnerability" style="shape=rectangle;whiteSpace=wrap;html=1;strokeColor=#000000;fontColor=#000000;fillColor=none;" parent="1" vertex="1">
                    <mxGeometry x="474" y="1200" width="120" height="80" as="geometry"/>
                </mxCell>
                <mxCell id="28" style="edgeStyle=none;html=1;exitX=0;exitY=0.25;exitDx=0;exitDy=0;entryX=1;entryY=0.5;entryDx=0;entryDy=0;fontColor=#000000;labelBackgroundColor=none;strokeColor=#000000;labelBorderColor=none;" edge="1" parent="1" source="Admin" target="24">
                    <mxGeometry relative="1" as="geometry"/>
                </mxCell>
                <mxCell id="29" style="edgeStyle=none;html=1;exitX=0;exitY=1;exitDx=0;exitDy=0;entryX=1;entryY=0;entryDx=0;entryDy=0;fontColor=#000000;labelBackgroundColor=none;strokeColor=#000000;labelBorderColor=none;" edge="1" parent="1" source="Admin" target="27">
                    <mxGeometry relative="1" as="geometry"/>
                </mxCell>
                <mxCell id="30" style="edgeStyle=none;html=1;exitX=0.25;exitY=1;exitDx=0;exitDy=0;entryX=0.5;entryY=0;entryDx=0;entryDy=0;fontColor=#000000;labelBackgroundColor=none;strokeColor=#000000;labelBorderColor=none;" edge="1" parent="1" source="Admin" target="26">
                    <mxGeometry relative="1" as="geometry"/>
                </mxCell>
                <mxCell id="31" style="edgeStyle=none;html=1;exitX=1;exitY=1;exitDx=0;exitDy=0;entryX=0.5;entryY=0;entryDx=0;entryDy=0;fontColor=#000000;labelBackgroundColor=none;strokeColor=#000000;labelBorderColor=none;" edge="1" parent="1" source="Admin" target="25">
                    <mxGeometry relative="1" as="geometry"/>
                </mxCell>
                <mxCell id="Admin" value="Admin" style="shape=rectangle;whiteSpace=wrap;html=1;fontColor=#000000;labelBackgroundColor=none;strokeColor=#000000;labelBorderColor=none;fillColor=none;" parent="1" vertex="1">
                    <mxGeometry x="690" y="585" width="120" height="80" as="geometry"/>
                </mxCell>
                <mxCell id="StudentToResume" value="" style="fontColor=#000000;labelBackgroundColor=none;strokeColor=#000000;labelBorderColor=none;startArrow=none;" parent="1" source="60" target="Resume" edge="1">
                    <mxGeometry relative="1" as="geometry"/>
                </mxCell>
                <mxCell id="62" value="&lt;span style=&quot;background-color: rgb(255, 255, 255);&quot;&gt;1&lt;/span&gt;" style="edgeLabel;html=1;align=center;verticalAlign=middle;resizable=0;points=[];fontColor=#000000;" vertex="1" connectable="0" parent="StudentToResume">
                    <mxGeometry x="-0.1243" relative="1" as="geometry">
                        <mxPoint as="offset"/>
                    </mxGeometry>
                </mxCell>
                <mxCell id="ResumeToJob" value="" style="fontColor=#000000;labelBackgroundColor=none;strokeColor=#000000;labelBorderColor=none;startArrow=none;" parent="1" source="66" target="Job" edge="1">
                    <mxGeometry x="0.0612" y="7" relative="1" as="geometry">
                        <mxPoint as="offset"/>
                    </mxGeometry>
                </mxCell>
                <mxCell id="WebsiteToVulnerability" value="" style="strokeColor=#000000;fontColor=#000000;labelBackgroundColor=none;startArrow=none;" parent="1" source="68" target="Vulnerability" edge="1">
                    <mxGeometry x="0.0122" y="8" relative="1" as="geometry">
                        <mxPoint as="offset"/>
                    </mxGeometry>
                </mxCell>
                <mxCell id="AdminToEntities" value="" style="fontColor=#000000;labelBackgroundColor=none;strokeColor=#000000;labelBorderColor=none;startArrow=none;" parent="1" source="64" target="Resume" edge="1">
                    <mxGeometry x="0.4851" y="55" relative="1" as="geometry">
                        <mxPoint y="1" as="offset"/>
                    </mxGeometry>
                </mxCell>
                <mxCell id="2" value="&lt;span style=&quot;text-align: left;&quot;&gt;ResumeID (PK)&lt;/span&gt;&lt;br style=&quot;text-align: left;&quot;&gt;" style="ellipse;whiteSpace=wrap;html=1;fontColor=#000000;labelBackgroundColor=none;strokeColor=#000000;labelBorderColor=none;fillColor=none;" parent="1" vertex="1">
                    <mxGeometry x="180" y="310" width="110" height="80" as="geometry"/>
                </mxCell>
                <mxCell id="4" value="&lt;span style=&quot;text-align: left;&quot;&gt;FileContent&lt;/span&gt;" style="ellipse;whiteSpace=wrap;html=1;fontColor=#000000;labelBackgroundColor=none;strokeColor=#000000;labelBorderColor=none;fillColor=none;" parent="1" vertex="1">
                    <mxGeometry x="180" y="130" width="120" height="80" as="geometry"/>
                </mxCell>
                <mxCell id="7" value="&lt;span style=&quot;text-align: left;&quot;&gt;UploadedDate&lt;/span&gt;" style="ellipse;whiteSpace=wrap;html=1;fontColor=#000000;labelBackgroundColor=none;strokeColor=#000000;labelBorderColor=none;fillColor=none;" parent="1" vertex="1">
                    <mxGeometry x="175" y="220" width="120" height="80" as="geometry"/>
                </mxCell>
                <mxCell id="9" value="&lt;span style=&quot;text-align: left;&quot;&gt;JobMatchScore&lt;/span&gt;&lt;br style=&quot;text-align: left;&quot;&gt;" style="ellipse;whiteSpace=wrap;html=1;fontColor=#000000;labelBackgroundColor=none;strokeColor=#000000;labelBorderColor=none;fillColor=none;" parent="1" vertex="1">
                    <mxGeometry x="210" y="20" width="120" height="80" as="geometry"/>
                </mxCell>
                <mxCell id="11" value="&lt;span style=&quot;text-align: left;&quot;&gt;Status&lt;/span&gt;" style="ellipse;whiteSpace=wrap;html=1;fontColor=#000000;labelBackgroundColor=none;strokeColor=#000000;labelBorderColor=none;gradientColor=none;fillColor=none;" parent="1" vertex="1">
                    <mxGeometry x="354" y="10" width="120" height="80" as="geometry"/>
                </mxCell>
                <mxCell id="12" value="Student ID" style="ellipse;whiteSpace=wrap;html=1;fontColor=#000000;labelBackgroundColor=none;strokeColor=#000000;labelBorderColor=none;fillColor=none;" vertex="1" parent="1">
                    <mxGeometry x="20" y="570" width="110" height="70" as="geometry"/>
                </mxCell>
                <mxCell id="14" value="Name" style="ellipse;whiteSpace=wrap;html=1;fontColor=#000000;labelBackgroundColor=none;strokeColor=#000000;labelBorderColor=none;fillColor=none;" vertex="1" parent="1">
                    <mxGeometry x="90" y="470" width="110" height="70" as="geometry"/>
                </mxCell>
                <mxCell id="16" value="Email" style="ellipse;whiteSpace=wrap;html=1;fontColor=#000000;labelBackgroundColor=none;strokeColor=#000000;labelBorderColor=none;fillColor=none;" vertex="1" parent="1">
                    <mxGeometry x="40" y="670" width="110" height="70" as="geometry"/>
                </mxCell>
                <mxCell id="19" value="ContactNumber" style="ellipse;whiteSpace=wrap;html=1;fontColor=#000000;labelBackgroundColor=none;strokeColor=#000000;labelBorderColor=none;fillColor=none;" vertex="1" parent="1">
                    <mxGeometry x="200" y="720" width="110" height="70" as="geometry"/>
                </mxCell>
                <mxCell id="20" value="Resume" style="ellipse;whiteSpace=wrap;html=1;fontColor=#000000;labelBackgroundColor=none;strokeColor=#000000;labelBorderColor=none;fillColor=none;" vertex="1" parent="1">
                    <mxGeometry x="330" y="700" width="110" height="70" as="geometry"/>
                </mxCell>
                <mxCell id="24" value="AdminID" style="ellipse;whiteSpace=wrap;html=1;fontColor=#000000;labelBackgroundColor=none;strokeColor=#000000;labelBorderColor=none;fillColor=none;" vertex="1" parent="1">
                    <mxGeometry x="520" y="570" width="110" height="70" as="geometry"/>
                </mxCell>
                <mxCell id="25" value="Role" style="ellipse;whiteSpace=wrap;html=1;fontColor=#000000;labelBackgroundColor=none;strokeColor=#000000;labelBorderColor=none;fillColor=none;" vertex="1" parent="1">
                    <mxGeometry x="870" y="660" width="110" height="70" as="geometry"/>
                </mxCell>
                <mxCell id="26" value="Email" style="ellipse;whiteSpace=wrap;html=1;fontColor=#000000;labelBackgroundColor=none;strokeColor=#000000;labelBorderColor=none;fillColor=none;" vertex="1" parent="1">
                    <mxGeometry x="730" y="790" width="110" height="70" as="geometry"/>
                </mxCell>
                <mxCell id="27" value="Name" style="ellipse;whiteSpace=wrap;html=1;fontColor=#000000;labelBackgroundColor=none;strokeColor=#000000;labelBorderColor=none;fillColor=none;" vertex="1" parent="1">
                    <mxGeometry x="580" y="770" width="110" height="70" as="geometry"/>
                </mxCell>
                <mxCell id="32" value="&lt;span style=&quot;text-align: left;&quot;&gt;Required Skills&lt;/span&gt;" style="ellipse;whiteSpace=wrap;html=1;fontColor=#000000;labelBackgroundColor=none;strokeColor=#000000;labelBorderColor=none;fillColor=none;" vertex="1" parent="1">
                    <mxGeometry x="540" y="220" width="120" height="80" as="geometry"/>
                </mxCell>
                <mxCell id="33" value="&lt;span style=&quot;text-align: left;&quot;&gt;Description&lt;/span&gt;" style="ellipse;whiteSpace=wrap;html=1;fontColor=#000000;labelBackgroundColor=none;strokeColor=#000000;labelBorderColor=none;fillColor=none;" vertex="1" parent="1">
                    <mxGeometry x="840" y="465" width="120" height="80" as="geometry"/>
                </mxCell>
                <mxCell id="34" value="&lt;span style=&quot;text-align: left;&quot;&gt;JobID&lt;/span&gt;" style="ellipse;whiteSpace=wrap;html=1;fontColor=#000000;labelBackgroundColor=none;strokeColor=#000000;labelBorderColor=none;fillColor=none;" vertex="1" parent="1">
                    <mxGeometry x="870" y="230" width="120" height="80" as="geometry"/>
                </mxCell>
                <mxCell id="35" value="&lt;span style=&quot;text-align: left;&quot;&gt;Title&lt;/span&gt;" style="ellipse;whiteSpace=wrap;html=1;fontColor=#000000;labelBackgroundColor=none;strokeColor=#000000;labelBorderColor=none;fillColor=none;" vertex="1" parent="1">
                    <mxGeometry x="720" y="120" width="120" height="80" as="geometry"/>
                </mxCell>
                <mxCell id="40" value="WebsiteID" style="ellipse;whiteSpace=wrap;html=1;fillColor=none;strokeColor=#000000;fontColor=#000000;" vertex="1" parent="1">
                    <mxGeometry x="5" y="1200" width="114" height="80" as="geometry"/>
                </mxCell>
                <mxCell id="43" value="ScanDate" style="ellipse;whiteSpace=wrap;html=1;fillColor=none;strokeColor=#000000;fontColor=#000000;" vertex="1" parent="1">
                    <mxGeometry x="181" y="1353" width="114" height="80" as="geometry"/>
                </mxCell>
                <mxCell id="44" value="URL" style="ellipse;whiteSpace=wrap;html=1;fillColor=none;strokeColor=#000000;fontColor=#000000;" vertex="1" parent="1">
                    <mxGeometry x="29" y="1308" width="114" height="80" as="geometry"/>
                </mxCell>
                <mxCell id="45" value="Status" style="ellipse;whiteSpace=wrap;html=1;fillColor=none;strokeColor=#000000;fontColor=#000000;" vertex="1" parent="1">
                    <mxGeometry x="485" y="1054" width="114" height="80" as="geometry"/>
                </mxCell>
                <mxCell id="46" value="Severity" style="ellipse;whiteSpace=wrap;html=1;fillColor=none;strokeColor=#000000;fontColor=#000000;" vertex="1" parent="1">
                    <mxGeometry x="672" y="1124" width="114" height="80" as="geometry"/>
                </mxCell>
                <mxCell id="47" value="Description" style="ellipse;whiteSpace=wrap;html=1;fillColor=none;strokeColor=#000000;fontColor=#000000;" vertex="1" parent="1">
                    <mxGeometry x="669" y="1265" width="114" height="80" as="geometry"/>
                </mxCell>
                <mxCell id="48" value="Type" style="ellipse;whiteSpace=wrap;html=1;fillColor=none;strokeColor=#000000;fontColor=#000000;" vertex="1" parent="1">
                    <mxGeometry x="585" y="1368" width="114" height="80" as="geometry"/>
                </mxCell>
                <mxCell id="49" value="VulnerabilityID" style="ellipse;whiteSpace=wrap;html=1;fillColor=none;strokeColor=#000000;fontColor=#000000;" vertex="1" parent="1">
                    <mxGeometry x="446" y="1370" width="114" height="80" as="geometry"/>
                </mxCell>
                <mxCell id="61" value="" style="fontColor=#000000;labelBackgroundColor=none;strokeColor=#000000;labelBorderColor=none;endArrow=none;" edge="1" parent="1" source="Student" target="60">
                    <mxGeometry relative="1" as="geometry">
                        <mxPoint x="289.2307692307693" y="570" as="sourcePoint"/>
                        <mxPoint x="420.7692307692307" y="390" as="targetPoint"/>
                    </mxGeometry>
                </mxCell>
                <mxCell id="60" value="&lt;span style=&quot;font-size: 11px;&quot;&gt;Uploads&lt;/span&gt;" style="rhombus;whiteSpace=wrap;html=1;labelBackgroundColor=none;labelBorderColor=none;strokeColor=#000000;fontColor=#000000;fillColor=none;gradientColor=none;" vertex="1" parent="1">
                    <mxGeometry x="322" y="437" width="80" height="80" as="geometry"/>
                </mxCell>
                <mxCell id="63" value="" style="fontColor=#000000;labelBackgroundColor=none;strokeColor=#000000;labelBorderColor=none;endArrow=none;" edge="1" parent="1" source="Admin" target="64">
                    <mxGeometry x="0.4851" y="55" relative="1" as="geometry">
                        <mxPoint x="706.3636363636363" y="585" as="sourcePoint"/>
                        <mxPoint x="493.6363636363635" y="390" as="targetPoint"/>
                        <mxPoint y="1" as="offset"/>
                    </mxGeometry>
                </mxCell>
                <mxCell id="64" value="&lt;span style=&quot;font-size: 11px;&quot;&gt;Manages&lt;/span&gt;" style="rhombus;whiteSpace=wrap;html=1;labelBackgroundColor=#FFFFFF;labelBorderColor=none;strokeColor=#000000;fontColor=#000000;fillColor=none;gradientColor=none;" vertex="1" parent="1">
                    <mxGeometry x="523" y="416" width="80" height="80" as="geometry"/>
                </mxCell>
                <mxCell id="65" value="" style="fontColor=#000000;labelBackgroundColor=none;strokeColor=#000000;labelBorderColor=none;endArrow=none;" edge="1" parent="1" source="Resume" target="66">
                    <mxGeometry x="0.0612" y="7" relative="1" as="geometry">
                        <mxPoint x="510" y="353.9999999999999" as="sourcePoint"/>
                        <mxPoint x="690" y="366" as="targetPoint"/>
                        <mxPoint as="offset"/>
                    </mxGeometry>
                </mxCell>
                <mxCell id="66" value="&lt;span style=&quot;color: rgb(0, 0, 0); font-family: Helvetica; font-style: normal; font-variant-ligatures: normal; font-variant-caps: normal; font-weight: 400; letter-spacing: normal; orphans: 2; text-align: center; text-indent: 0px; text-transform: none; widows: 2; word-spacing: 0px; -webkit-text-stroke-width: 0px; text-decoration-thickness: initial; text-decoration-style: initial; text-decoration-color: initial; float: none; display: inline !important;&quot;&gt;&lt;font style=&quot;font-size: 6px;&quot;&gt;Evaluated Against&lt;/font&gt;&lt;/span&gt;" style="rhombus;whiteSpace=wrap;html=1;labelBackgroundColor=#FFFFFF;labelBorderColor=none;strokeColor=#000000;fontColor=#000000;fillColor=none;gradientColor=none;" vertex="1" parent="1">
                    <mxGeometry x="536" y="317" width="80" height="80" as="geometry"/>
                </mxCell>
                <mxCell id="69" value="" style="strokeColor=#000000;fontColor=#000000;labelBackgroundColor=none;endArrow=none;" edge="1" parent="1" source="Website" target="68">
                    <mxGeometry x="0.0122" y="8" relative="1" as="geometry">
                        <mxPoint x="285" y="1236.7766990291263" as="sourcePoint"/>
                        <mxPoint x="474" y="1239.2233009708739" as="targetPoint"/>
                        <mxPoint as="offset"/>
                    </mxGeometry>
                </mxCell>
                <mxCell id="71" value="*" style="edgeLabel;html=1;align=center;verticalAlign=middle;resizable=0;points=[];fontSize=6;fontColor=#000000;" vertex="1" connectable="0" parent="69">
                    <mxGeometry x="-0.3286" relative="1" as="geometry">
                        <mxPoint as="offset"/>
                    </mxGeometry>
                </mxCell>
                <mxCell id="68" value="&lt;meta charset=&quot;utf-8&quot;&gt;&lt;span style=&quot;color: rgb(0, 0, 0); font-family: Helvetica; font-size: 11px; font-style: normal; font-variant-ligatures: normal; font-variant-caps: normal; font-weight: 400; letter-spacing: normal; orphans: 2; text-align: center; text-indent: 0px; text-transform: none; widows: 2; word-spacing: 0px; -webkit-text-stroke-width: 0px; text-decoration-thickness: initial; text-decoration-style: initial; text-decoration-color: initial; float: none; display: inline !important;&quot;&gt;Scanned For&lt;/span&gt;" style="rhombus;whiteSpace=wrap;html=1;labelBackgroundColor=#FFFFFF;labelBorderColor=none;strokeColor=#000000;fontSize=6;fontColor=#000000;fillColor=none;gradientColor=none;" vertex="1" parent="1">
                    <mxGeometry x="335" y="1200" width="80" height="80" as="geometry"/>
                </mxCell>
            </root>
        </mxGraphModel>
    </diagram>
</mxfile>